<svg width="108" height="109" viewBox="0 0 108 109" fill="none" xmlns="http://www.w3.org/2000/svg">
<path d="M13.0664 97.6797H14.5078C14.3906 98.8281 14.0742 99.8203 13.5586 100.656C13.043 101.484 12.3398 102.121 11.4492 102.566C10.5586 103.012 9.48438 103.234 8.22656 103.234C7.25781 103.234 6.37891 103.051 5.58984 102.684C4.80859 102.316 4.13672 101.797 3.57422 101.125C3.01172 100.445 2.57812 99.6328 2.27344 98.6875C1.96875 97.7422 1.81641 96.6914 1.81641 95.5352V93.4023C1.81641 92.2461 1.96875 91.1992 2.27344 90.2617C2.57812 89.3164 3.01562 88.5039 3.58594 87.8242C4.15625 87.1445 4.83984 86.6211 5.63672 86.2539C6.43359 85.8867 7.33203 85.7031 8.33203 85.7031C9.54297 85.7031 10.5898 85.9258 11.4727 86.3711C12.3555 86.8086 13.0508 87.4414 13.5586 88.2695C14.0742 89.0977 14.3906 90.0977 14.5078 91.2695H13.0664C12.957 90.3477 12.7148 89.5664 12.3398 88.9258C11.9648 88.2852 11.4453 87.7969 10.7812 87.4609C10.125 87.1172 9.30859 86.9453 8.33203 86.9453C7.53516 86.9453 6.82422 87.0977 6.19922 87.4023C5.57422 87.707 5.04297 88.1445 4.60547 88.7148C4.16797 89.2773 3.83203 89.9531 3.59766 90.7422C3.37109 91.5312 3.25781 92.4102 3.25781 93.3789V95.5352C3.25781 96.4727 3.36719 97.3359 3.58594 98.125C3.80469 98.9141 4.125 99.5977 4.54688 100.176C4.97656 100.754 5.5 101.203 6.11719 101.523C6.73438 101.844 7.4375 102.004 8.22656 102.004C9.23438 102.004 10.0742 101.844 10.7461 101.523C11.4258 101.195 11.9531 100.711 12.3281 100.07C12.7031 99.4297 12.9492 98.6328 13.0664 97.6797ZM19.0898 85V103H17.6953V85H19.0898ZM18.7734 95.875L18.1523 95.5234C18.1992 94.7734 18.3516 94.0703 18.6094 93.4141C18.8672 92.7578 19.2148 92.1797 19.6523 91.6797C20.0977 91.1797 20.6172 90.7891 21.2109 90.5078C21.8125 90.2266 22.4766 90.0859 23.2031 90.0859C23.8359 90.0859 24.4023 90.1719 24.9023 90.3438C25.4023 90.5156 25.8281 90.7891 26.1797 91.1641C26.5312 91.5391 26.7969 92.0195 26.9766 92.6055C27.1641 93.1914 27.2578 93.9062 27.2578 94.75V103H25.8516V94.7383C25.8516 93.8633 25.7305 93.1797 25.4883 92.6875C25.2461 92.1875 24.9023 91.832 24.457 91.6211C24.0117 91.4102 23.4844 91.3047 22.875 91.3047C22.2031 91.3047 21.6133 91.4531 21.1055 91.75C20.6055 92.0391 20.1836 92.418 19.8398 92.8867C19.5039 93.3477 19.2461 93.8438 19.0664 94.375C18.8867 94.8984 18.7891 95.3984 18.7734 95.875ZM35.7656 103.234C34.9375 103.234 34.1758 103.082 33.4805 102.777C32.793 102.473 32.1914 102.043 31.6758 101.488C31.168 100.934 30.7734 100.277 30.4922 99.5195C30.2188 98.7539 30.082 97.918 30.082 97.0117V96.5078C30.082 95.5312 30.2266 94.6484 30.5156 93.8594C30.8047 93.0703 31.2031 92.3945 31.7109 91.832C32.2188 91.2695 32.7969 90.8398 33.4453 90.543C34.1016 90.2383 34.7891 90.0859 35.5078 90.0859C36.3125 90.0859 37.0273 90.2305 37.6523 90.5195C38.2773 90.8008 38.8008 91.2031 39.2227 91.7266C39.6523 92.2422 39.9766 92.8555 40.1953 93.5664C40.4141 94.2695 40.5234 95.0469 40.5234 95.8984V96.7539H30.9258V95.5586H39.1289V95.3945C39.1133 94.6836 38.9688 94.0195 38.6953 93.4023C38.4297 92.7773 38.0312 92.2695 37.5 91.8789C36.9688 91.4883 36.3047 91.293 35.5078 91.293C34.9141 91.293 34.3672 91.418 33.8672 91.668C33.375 91.918 32.9492 92.2773 32.5898 92.7461C32.2383 93.207 31.9648 93.7578 31.7695 94.3984C31.582 95.0312 31.4883 95.7344 31.4883 96.5078V97.0117C31.4883 97.7148 31.5898 98.3711 31.793 98.9805C32.0039 99.582 32.3008 100.113 32.6836 100.574C33.0742 101.035 33.5352 101.395 34.0664 101.652C34.5977 101.91 35.1836 102.039 35.8242 102.039C36.5742 102.039 37.2383 101.902 37.8164 101.629C38.3945 101.348 38.9141 100.906 39.375 100.305L40.2539 100.984C39.9805 101.391 39.6367 101.766 39.2227 102.109C38.8164 102.453 38.3281 102.727 37.7578 102.93C37.1875 103.133 36.5234 103.234 35.7656 103.234ZM44.6133 92.9453V103H43.207V90.3203H44.5547L44.6133 92.9453ZM44.3555 95.875L43.6758 95.5234C43.7227 94.7734 43.8633 94.0703 44.0977 93.4141C44.3398 92.7578 44.6758 92.1797 45.1055 91.6797C45.5352 91.1797 46.0508 90.7891 46.6523 90.5078C47.2539 90.2266 47.9375 90.0859 48.7031 90.0859C49.3203 90.0859 49.8789 90.1719 50.3789 90.3438C50.8867 90.5078 51.3164 90.7695 51.668 91.1289C52.0273 91.4805 52.3047 91.9414 52.5 92.5117C52.6953 93.082 52.793 93.7656 52.793 94.5625V103H51.3984V94.6094C51.3984 93.7656 51.2656 93.1055 51 92.6289C50.7422 92.1523 50.3789 91.8125 49.9102 91.6094C49.4492 91.4062 48.9141 91.3047 48.3047 91.3047C47.5859 91.3047 46.9766 91.4531 46.4766 91.75C45.9844 92.0391 45.582 92.418 45.2695 92.8867C44.9648 93.3477 44.7383 93.8438 44.5898 94.375C44.4414 94.8984 44.3633 95.3984 44.3555 95.875ZM52.7812 94.7734L51.8438 94.7969C51.8828 94.1797 52.0234 93.5898 52.2656 93.0273C52.5156 92.4648 52.8555 91.9648 53.2852 91.5273C53.7148 91.082 54.2266 90.7305 54.8203 90.4727C55.4219 90.2148 56.0977 90.0859 56.8477 90.0859C57.5039 90.0859 58.0898 90.1758 58.6055 90.3555C59.1211 90.5273 59.5547 90.8047 59.9062 91.1875C60.2656 91.5625 60.5391 92.043 60.7266 92.6289C60.9141 93.2148 61.0078 93.918 61.0078 94.7383V103H59.6016V94.7266C59.6016 93.8281 59.4688 93.1328 59.2031 92.6406C58.9453 92.1406 58.5859 91.793 58.125 91.5977C57.6641 91.4023 57.125 91.3047 56.5078 91.3047C55.8984 91.3125 55.3633 91.4258 54.9023 91.6445C54.4414 91.8555 54.0547 92.1367 53.7422 92.4883C53.4375 92.832 53.2031 93.2031 53.0391 93.6016C52.8828 94 52.7969 94.3906 52.7812 94.7734ZM66.1289 90.3203V103H64.7344V90.3203H66.1289ZM64.4883 86.6523C64.4883 86.3867 64.5703 86.1641 64.7344 85.9844C64.9062 85.7969 65.1406 85.7031 65.4375 85.7031C65.7344 85.7031 65.9688 85.7969 66.1406 85.9844C66.3203 86.1641 66.4102 86.3867 66.4102 86.6523C66.4102 86.9102 66.3203 87.1328 66.1406 87.3203C65.9688 87.5 65.7344 87.5898 65.4375 87.5898C65.1406 87.5898 64.9062 87.5 64.7344 87.3203C64.5703 87.1328 64.4883 86.9102 64.4883 86.6523ZM77.5547 99.7656C77.5547 99.4219 77.4688 99.082 77.2969 98.7461C77.125 98.4102 76.793 98.1016 76.3008 97.8203C75.8164 97.5391 75.1016 97.3008 74.1562 97.1055C73.4531 96.9492 72.8242 96.7734 72.2695 96.5781C71.7227 96.3828 71.2617 96.1484 70.8867 95.875C70.5117 95.6016 70.2266 95.2734 70.0312 94.8906C69.8359 94.5078 69.7383 94.0547 69.7383 93.5312C69.7383 93.0625 69.8398 92.6211 70.043 92.207C70.2539 91.7852 70.5508 91.418 70.9336 91.1055C71.3242 90.7852 71.793 90.5352 72.3398 90.3555C72.8945 90.1758 73.5156 90.0859 74.2031 90.0859C75.1797 90.0859 76.0156 90.2539 76.7109 90.5898C77.4141 90.918 77.9492 91.3672 78.3164 91.9375C78.6914 92.5078 78.8789 93.1523 78.8789 93.8711H77.4844C77.4844 93.4336 77.3555 93.0195 77.0977 92.6289C76.8477 92.2383 76.4766 91.918 75.9844 91.668C75.5 91.418 74.9062 91.293 74.2031 91.293C73.4766 91.293 72.8867 91.4023 72.4336 91.6211C71.9805 91.8398 71.6484 92.1172 71.4375 92.4531C71.2344 92.7891 71.1328 93.1367 71.1328 93.4961C71.1328 93.7773 71.1758 94.0352 71.2617 94.2695C71.3555 94.4961 71.5195 94.707 71.7539 94.9023C71.9961 95.0977 72.3398 95.2812 72.7852 95.4531C73.2305 95.625 73.8086 95.793 74.5195 95.957C75.543 96.1836 76.3789 96.4609 77.0273 96.7891C77.6836 97.1094 78.168 97.5078 78.4805 97.9844C78.793 98.4531 78.9492 99.0234 78.9492 99.6953C78.9492 100.219 78.8398 100.699 78.6211 101.137C78.4023 101.566 78.0859 101.938 77.6719 102.25C77.2656 102.562 76.7734 102.805 76.1953 102.977C75.625 103.148 74.9844 103.234 74.2734 103.234C73.2031 103.234 72.2969 103.059 71.5547 102.707C70.8203 102.348 70.2617 101.879 69.8789 101.301C69.5039 100.715 69.3164 100.094 69.3164 99.4375H70.7109C70.7578 100.094 70.9648 100.613 71.332 100.996C71.6992 101.371 72.1484 101.637 72.6797 101.793C73.2188 101.949 73.75 102.027 74.2734 102.027C74.9922 102.027 75.5938 101.922 76.0781 101.711C76.5625 101.5 76.9297 101.223 77.1797 100.879C77.4297 100.535 77.5547 100.164 77.5547 99.7656ZM86.918 90.3203V91.4688H80.5664V90.3203H86.918ZM82.8984 87.0625H84.293V99.918C84.293 100.504 84.3711 100.945 84.5273 101.242C84.6836 101.539 84.8867 101.738 85.1367 101.84C85.3867 101.941 85.6562 101.992 85.9453 101.992C86.1562 101.992 86.3594 101.98 86.5547 101.957C86.75 101.926 86.9258 101.895 87.082 101.863L87.1406 103.047C86.9688 103.102 86.7461 103.145 86.4727 103.176C86.1992 103.215 85.9258 103.234 85.6523 103.234C85.1133 103.234 84.6367 103.137 84.2227 102.941C83.8086 102.738 83.4844 102.395 83.25 101.91C83.0156 101.418 82.8984 100.75 82.8984 99.9062V87.0625ZM91.2539 92.418V103H89.8594V90.3203H91.2188L91.2539 92.418ZM95.7422 90.2266L95.707 91.5156C95.5508 91.4922 95.3984 91.4727 95.25 91.457C95.1016 91.4414 94.9414 91.4336 94.7695 91.4336C94.1602 91.4336 93.625 91.5469 93.1641 91.7734C92.7109 91.9922 92.3281 92.3008 92.0156 92.6992C91.7031 93.0898 91.4648 93.5508 91.3008 94.082C91.1367 94.6055 91.043 95.168 91.0195 95.7695L90.5039 95.9688C90.5039 95.1406 90.5898 94.3711 90.7617 93.6602C90.9336 92.9492 91.1953 92.3281 91.5469 91.7969C91.9062 91.2578 92.3555 90.8398 92.8945 90.543C93.4414 90.2383 94.082 90.0859 94.8164 90.0859C94.9961 90.0859 95.1719 90.1016 95.3438 90.1328C95.5234 90.1562 95.6562 90.1875 95.7422 90.2266ZM101.918 101.734L105.867 90.3203H107.379L102.012 105.039C101.902 105.328 101.762 105.648 101.59 106C101.426 106.352 101.207 106.688 100.934 107.008C100.668 107.336 100.332 107.602 99.9258 107.805C99.5273 108.016 99.0391 108.121 98.4609 108.121C98.3125 108.121 98.1211 108.102 97.8867 108.062C97.6602 108.031 97.4961 108 97.3945 107.969L97.3828 106.785C97.4688 106.809 97.5938 106.828 97.7578 106.844C97.9219 106.859 98.0352 106.867 98.0977 106.867C98.6055 106.867 99.0312 106.781 99.375 106.609C99.7266 106.438 100.02 106.18 100.254 105.836C100.488 105.5 100.695 105.078 100.875 104.57L101.918 101.734ZM98.2266 90.3203L102.27 101.207L102.645 102.672L101.625 103.246L96.7031 90.3203H98.2266Z" fill="white"/>
<path d="M76.6111 46.4979L62.3751 26.9227V7.875H66.3126V3.9375H42.6876V7.875H46.6251V26.9227L32.389 46.4979C31.5303 47.6781 31.0149 49.0728 30.8997 50.5278C30.7845 51.9827 31.0741 53.4412 31.7364 54.7418C32.3987 56.0423 33.4079 57.1343 34.6524 57.8969C35.8968 58.6595 37.328 59.0629 38.7875 59.0625H70.2107C71.6702 59.0629 73.1013 58.6595 74.3458 57.8969C75.5902 57.1343 76.5994 56.0423 77.2617 54.7418C77.9241 53.4412 78.2136 51.9827 78.0985 50.5278C77.9833 49.0728 77.4678 47.6781 76.6091 46.4979H76.6111ZM50.5626 28.2023V7.875H58.4376V28.2023L63.7 35.4375H45.3001L50.5626 28.2023ZM70.2127 55.125H38.7894C38.0566 55.1242 37.3383 54.921 36.7138 54.5377C36.0892 54.1545 35.5826 53.6061 35.2501 52.9531C34.9175 52.3002 34.7717 51.568 34.829 50.8374C34.8862 50.1069 35.1442 49.4064 35.5745 48.8132L42.4375 39.375H66.5626L73.4276 48.8132C73.8579 49.4064 74.1158 50.1069 74.1731 50.8374C74.2303 51.568 74.0846 52.3002 73.752 52.9531C73.4194 53.6061 72.9129 54.1545 72.2883 54.5377C71.6638 54.921 70.9454 55.1242 70.2127 55.125Z" fill="white"/>
</svg>
