<svg width="34" height="34" viewBox="0 0 34 34" fill="none" xmlns="http://www.w3.org/2000/svg">
<path fill-rule="evenodd" clip-rule="evenodd" d="M22.8213 4.91309H10.3693C6.93083 4.91309 4.14337 7.6209 4.14337 10.9612V23.0573C4.14337 26.3976 6.93083 29.1054 10.3693 29.1054H22.8213C26.2598 29.1054 29.0472 26.3976 29.0472 23.0573V10.9612C29.0472 7.6209 26.2598 4.91309 22.8213 4.91309ZM17.2722 12.8968C16.3844 12.7689 15.4784 12.9164 14.684 13.3169C13.8898 13.7172 13.2497 14.3485 12.8513 15.1176C12.453 15.8863 12.3151 16.7555 12.4554 17.6026C12.5957 18.4498 13.008 19.2358 13.6376 19.8475C14.2676 20.4594 15.083 20.8654 15.969 21.0039C16.8551 21.1424 17.763 21.0057 18.5625 20.6147C19.3618 20.2239 20.01 19.6002 20.4183 18.8358C20.8264 18.0718 20.9753 17.2042 20.8457 16.3556C20.7136 15.4898 20.2978 14.6849 19.6556 14.061C19.013 13.4367 18.1778 13.0272 17.2722 12.8968ZM14.0212 12.0021C15.0866 11.4651 16.2974 11.2687 17.4822 11.4394C18.6907 11.6135 19.8128 12.161 20.6815 13.0048C21.5505 13.849 22.1199 14.9454 22.3013 16.1334C22.4791 17.2982 22.2739 18.4868 21.717 19.5295C21.1603 20.5718 20.2815 21.4132 19.2093 21.9375C18.1373 22.4616 16.9241 22.6434 15.7416 22.4586C14.559 22.2737 13.4633 21.7309 12.6117 20.9036C11.7598 20.076 11.1953 19.0055 11.0028 17.8432C10.8102 16.6807 11.0002 15.4896 11.5439 14.4402C12.0875 13.3911 12.9556 12.5392 14.0212 12.0021ZM23.4461 9.62607C23.0395 9.62607 22.7099 9.95568 22.7099 10.3623C22.7099 10.7689 23.0395 11.0985 23.4461 11.0985H23.4626C23.8692 11.0985 24.1988 10.7689 24.1988 10.3623C24.1988 9.95568 23.8692 9.62607 23.4626 9.62607H23.4461Z" fill="#F0F0F0"/>
</svg>
