<svg width="34" height="34" viewBox="0 0 34 34" fill="none" xmlns="http://www.w3.org/2000/svg">
<path d="M22.9403 11.6237C25.142 11.6237 27.2534 12.4733 28.8102 13.9856C30.367 15.4979 31.2416 17.549 31.2416 19.6878V29.0959H25.7074V19.6878C25.7074 18.9749 25.4159 18.2911 24.897 17.787C24.378 17.2829 23.6742 16.9997 22.9403 16.9997C22.2065 16.9997 21.5026 17.2829 20.9837 17.787C20.4648 18.2911 20.1732 18.9749 20.1732 19.6878V29.0959H14.6391V19.6878C14.6391 17.549 15.5136 15.4979 17.0704 13.9856C18.6272 12.4733 20.7387 11.6237 22.9403 11.6237Z" fill="#F0F0F0"/>
<path d="M9.10487 12.9677H3.57068V29.0959H9.10487V12.9677Z" fill="#F0F0F0"/>
<path d="M6.33777 8.93564C7.866 8.93564 9.10487 7.73216 9.10487 6.2476C9.10487 4.76304 7.866 3.55957 6.33777 3.55957C4.80955 3.55957 3.57068 4.76304 3.57068 6.2476C3.57068 7.73216 4.80955 8.93564 6.33777 8.93564Z" fill="#F0F0F0"/>
</svg>
