<svg width="83" height="115" viewBox="0 0 83 115" fill="none" xmlns="http://www.w3.org/2000/svg">
<path d="M3.76172 91.9375H5.21484L11.5195 106.961L17.8359 91.9375H19.2773L12.0703 109H10.9688L3.76172 91.9375ZM3.31641 91.9375H4.59375L4.74609 101.547V109H3.31641V91.9375ZM18.4688 91.9375H19.7461V109H18.3047V101.547L18.4688 91.9375ZM31.4648 106.727V100.188C31.4648 99.5859 31.3398 99.0664 31.0898 98.6289C30.8398 98.1914 30.4727 97.8555 29.9883 97.6211C29.5039 97.3867 28.9062 97.2695 28.1953 97.2695C27.5391 97.2695 26.9531 97.3867 26.4375 97.6211C25.9297 97.8477 25.5273 98.1562 25.2305 98.5469C24.9414 98.9297 24.7969 99.3555 24.7969 99.8242L23.3906 99.8125C23.3906 99.3359 23.5078 98.875 23.7422 98.4297C23.9766 97.9844 24.3086 97.5859 24.7383 97.2344C25.168 96.8828 25.6797 96.6055 26.2734 96.4023C26.875 96.1914 27.5352 96.0859 28.2539 96.0859C29.1602 96.0859 29.957 96.2383 30.6445 96.543C31.3398 96.8477 31.8828 97.3047 32.2734 97.9141C32.6641 98.5234 32.8594 99.2891 32.8594 100.211V106.34C32.8594 106.777 32.8906 107.23 32.9531 107.699C33.0234 108.168 33.1211 108.555 33.2461 108.859V109H31.7578C31.6641 108.719 31.5898 108.367 31.5352 107.945C31.4883 107.516 31.4648 107.109 31.4648 106.727ZM31.793 101.617L31.8164 102.695H29.0625C28.3438 102.695 27.6992 102.762 27.1289 102.895C26.5664 103.02 26.0898 103.207 25.6992 103.457C25.3086 103.699 25.0078 103.992 24.7969 104.336C24.5938 104.68 24.4922 105.07 24.4922 105.508C24.4922 105.961 24.6055 106.375 24.832 106.75C25.0664 107.125 25.3945 107.426 25.8164 107.652C26.2461 107.871 26.7539 107.98 27.3398 107.98C28.1211 107.98 28.8086 107.836 29.4023 107.547C30.0039 107.258 30.5 106.879 30.8906 106.41C31.2812 105.941 31.543 105.43 31.6758 104.875L32.2852 105.684C32.1836 106.074 31.9961 106.477 31.7227 106.891C31.457 107.297 31.1094 107.68 30.6797 108.039C30.25 108.391 29.7422 108.68 29.1562 108.906C28.5781 109.125 27.9219 109.234 27.1875 109.234C26.3594 109.234 25.6367 109.078 25.0195 108.766C24.4102 108.453 23.9336 108.027 23.5898 107.488C23.2539 106.941 23.0859 106.324 23.0859 105.637C23.0859 105.012 23.2188 104.453 23.4844 103.961C23.75 103.461 24.1328 103.039 24.6328 102.695C25.1406 102.344 25.75 102.078 26.4609 101.898C27.1797 101.711 27.9844 101.617 28.875 101.617H31.793ZM41.4141 96.3203V97.4688H35.0625V96.3203H41.4141ZM37.3945 93.0625H38.7891V105.918C38.7891 106.504 38.8672 106.945 39.0234 107.242C39.1797 107.539 39.3828 107.738 39.6328 107.84C39.8828 107.941 40.1523 107.992 40.4414 107.992C40.6523 107.992 40.8555 107.98 41.0508 107.957C41.2461 107.926 41.4219 107.895 41.5781 107.863L41.6367 109.047C41.4648 109.102 41.2422 109.145 40.9688 109.176C40.6953 109.215 40.4219 109.234 40.1484 109.234C39.6094 109.234 39.1328 109.137 38.7188 108.941C38.3047 108.738 37.9805 108.395 37.7461 107.91C37.5117 107.418 37.3945 106.75 37.3945 105.906V93.0625ZM45.75 91V109H44.3555V91H45.75ZM45.4336 101.875L44.8125 101.523C44.8594 100.773 45.0117 100.07 45.2695 99.4141C45.5273 98.7578 45.875 98.1797 46.3125 97.6797C46.7578 97.1797 47.2773 96.7891 47.8711 96.5078C48.4727 96.2266 49.1367 96.0859 49.8633 96.0859C50.4961 96.0859 51.0625 96.1719 51.5625 96.3438C52.0625 96.5156 52.4883 96.7891 52.8398 97.1641C53.1914 97.5391 53.457 98.0195 53.6367 98.6055C53.8242 99.1914 53.918 99.9062 53.918 100.75V109H52.5117V100.738C52.5117 99.8633 52.3906 99.1797 52.1484 98.6875C51.9062 98.1875 51.5625 97.832 51.1172 97.6211C50.6719 97.4102 50.1445 97.3047 49.5352 97.3047C48.8633 97.3047 48.2734 97.4531 47.7656 97.75C47.2656 98.0391 46.8438 98.418 46.5 98.8867C46.1641 99.3477 45.9062 99.8438 45.7266 100.375C45.5469 100.898 45.4492 101.398 45.4336 101.875ZM65.1211 105.766C65.1211 105.422 65.0352 105.082 64.8633 104.746C64.6914 104.41 64.3594 104.102 63.8672 103.82C63.3828 103.539 62.668 103.301 61.7227 103.105C61.0195 102.949 60.3906 102.773 59.8359 102.578C59.2891 102.383 58.8281 102.148 58.4531 101.875C58.0781 101.602 57.793 101.273 57.5977 100.891C57.4023 100.508 57.3047 100.055 57.3047 99.5312C57.3047 99.0625 57.4062 98.6211 57.6094 98.207C57.8203 97.7852 58.1172 97.418 58.5 97.1055C58.8906 96.7852 59.3594 96.5352 59.9062 96.3555C60.4609 96.1758 61.082 96.0859 61.7695 96.0859C62.7461 96.0859 63.582 96.2539 64.2773 96.5898C64.9805 96.918 65.5156 97.3672 65.8828 97.9375C66.2578 98.5078 66.4453 99.1523 66.4453 99.8711H65.0508C65.0508 99.4336 64.9219 99.0195 64.6641 98.6289C64.4141 98.2383 64.043 97.918 63.5508 97.668C63.0664 97.418 62.4727 97.293 61.7695 97.293C61.043 97.293 60.4531 97.4023 60 97.6211C59.5469 97.8398 59.2148 98.1172 59.0039 98.4531C58.8008 98.7891 58.6992 99.1367 58.6992 99.4961C58.6992 99.7773 58.7422 100.035 58.8281 100.27C58.9219 100.496 59.0859 100.707 59.3203 100.902C59.5625 101.098 59.9062 101.281 60.3516 101.453C60.7969 101.625 61.375 101.793 62.0859 101.957C63.1094 102.184 63.9453 102.461 64.5938 102.789C65.25 103.109 65.7344 103.508 66.0469 103.984C66.3594 104.453 66.5156 105.023 66.5156 105.695C66.5156 106.219 66.4062 106.699 66.1875 107.137C65.9688 107.566 65.6523 107.938 65.2383 108.25C64.832 108.562 64.3398 108.805 63.7617 108.977C63.1914 109.148 62.5508 109.234 61.8398 109.234C60.7695 109.234 59.8633 109.059 59.1211 108.707C58.3867 108.348 57.8281 107.879 57.4453 107.301C57.0703 106.715 56.8828 106.094 56.8828 105.438H58.2773C58.3242 106.094 58.5312 106.613 58.8984 106.996C59.2656 107.371 59.7148 107.637 60.2461 107.793C60.7852 107.949 61.3164 108.027 61.8398 108.027C62.5586 108.027 63.1602 107.922 63.6445 107.711C64.1289 107.5 64.4961 107.223 64.7461 106.879C64.9961 106.535 65.1211 106.164 65.1211 105.766Z" fill="white"/>
<path d="M60.821 33.4463L39.3025 52.703M39.3025 33.4463L60.821 52.703L39.3025 33.4463Z" stroke="white" stroke-width="2" stroke-linecap="round" stroke-linejoin="round"/>
<path d="M61.3333 15.625H37.125L23.2917 59.375L12.9167 40.625H6" stroke="white" stroke-width="2" stroke-linecap="round" stroke-linejoin="round"/>
</svg>
