<svg width="233" height="233" viewBox="0 0 233 233" fill="none" xmlns="http://www.w3.org/2000/svg">
<path d="M216.354 116.496C216.956 115.674 217.573 114.852 218.156 114.03C233.173 92.5873 236.338 72.6807 227.083 57.9726C218.527 44.3837 200.144 36.9004 175.305 36.9004C170.971 36.9004 166.479 37.1551 161.886 37.6067C150.721 14.8093 134.651 0.71875 116.5 0.71875C98.3572 0.71875 82.2868 14.8093 71.1216 37.6067C66.664 37.153 62.187 36.9173 57.7064 36.9004C32.8752 36.9004 14.4853 44.3837 5.92905 57.9726C-3.33345 72.6807 -0.164904 92.5873 14.8481 114.03C15.427 114.852 16.0445 115.674 16.6504 116.496C16.0406 117.318 15.4231 118.136 14.8442 118.966C-0.168763 140.401 -3.33731 160.315 5.92519 175.024C14.4814 188.609 32.8713 196.1 57.7026 196.1H57.7103C62.1884 196.083 66.663 195.846 71.1177 195.389C82.2829 218.195 98.3533 232.281 116.5 232.281C134.655 232.281 150.725 218.195 161.886 195.389C166.475 195.841 170.971 196.1 175.305 196.1C200.144 196.1 218.527 188.616 227.083 175.024C236.338 160.315 233.173 140.401 218.156 118.966C217.573 118.136 216.956 117.318 216.354 116.496ZM175.302 43.5385C197.439 43.5385 213.602 49.8409 220.807 61.2916C228.646 73.742 225.551 91.1979 212.062 110.445L211.842 110.734C202.074 98.9707 189.357 87.6473 174.53 77.4431C172.268 65.1665 168.945 53.9048 164.777 43.9978C168.366 43.7006 171.89 43.5385 175.302 43.5385ZM146.704 164.472C136.956 169.612 126.866 174.072 116.504 177.822C106.14 174.071 96.0469 169.611 86.2967 164.472C79.0537 160.634 72.0127 156.427 65.2013 151.867C63.2046 140.184 62.2091 128.352 62.2257 116.5C62.2257 104.115 63.2832 92.2207 65.2013 81.125C72.0125 76.5671 79.0536 72.3625 86.2967 68.528C96.0448 63.3857 106.138 58.9264 116.504 55.1822C126.865 58.9319 136.956 63.391 146.704 68.528C153.945 72.3618 160.985 76.565 167.795 81.1211C169.794 92.8077 170.789 104.644 170.771 116.5C170.771 128.881 169.717 140.779 167.795 151.875C160.984 156.431 153.944 160.635 146.704 164.472ZM165.935 161.222C163.704 171.06 160.756 180.114 157.236 188.126C147.383 186.806 137.078 184.464 126.6 181.214C140.276 175.723 153.438 169.033 165.935 161.222ZM106.4 181.214C95.9258 184.464 85.6213 186.806 75.7721 188.126C72.2447 180.114 69.3038 171.06 67.0693 161.222C72.162 164.409 77.3692 167.408 82.6804 170.215C90.3877 174.297 98.3053 177.968 106.4 181.214ZM56.9461 146.101C44.4456 136.866 33.8169 126.835 25.5462 116.5C33.8169 106.168 44.4417 96.1264 56.9461 86.8986C55.6337 96.7122 54.9813 106.603 54.9933 116.504C54.9933 126.766 55.6725 136.681 56.9461 146.101ZM67.0654 71.7814C69.3 61.9477 72.2408 52.8898 75.7683 44.8777C85.6174 46.1938 95.9219 48.5364 106.4 51.786C98.306 55.0349 90.3884 58.7077 82.6804 62.7891C77.3684 65.5967 72.16 68.5962 67.0654 71.7814ZM126.608 51.7821C137.078 48.5364 147.383 46.1938 157.236 44.8739C160.756 52.8859 163.704 61.94 165.935 71.7776C153.441 63.9659 140.281 57.2747 126.608 51.7821ZM176.058 86.8947C188.555 96.1264 199.191 106.165 207.462 116.5C199.191 126.835 188.566 136.877 176.058 146.101C177.332 136.681 178.011 126.766 178.011 116.504C178.011 106.23 177.332 96.3155 176.058 86.8947ZM116.5 7.95508C131.139 7.95508 144.438 19.6258 154.206 38.5329C142.076 40.3121 129.325 43.5269 116.504 48.0115C103.683 43.5269 90.9279 40.3121 78.7979 38.5329C88.5698 19.6258 101.862 7.95508 116.5 7.95508ZM20.9343 110.445C7.45736 91.1979 4.35057 73.7381 12.189 61.2916C19.3983 49.8409 35.5652 43.5385 57.7026 43.5385C61.1142 43.5385 64.634 43.7006 68.2232 43.9978C64.0474 53.9048 60.7283 65.1665 58.4629 77.4431C43.639 87.6473 30.9224 98.9746 21.1543 110.734C21.0887 110.638 21.0038 110.541 20.9343 110.445ZM57.7141 189.458H57.7064C35.569 189.458 19.406 183.155 12.1928 171.704C4.35442 159.258 7.45736 141.802 20.9382 122.552C21.0076 122.455 21.0925 122.362 21.162 122.266C30.9301 134.025 43.6467 145.353 58.4706 155.561C60.736 167.834 64.0551 179.103 68.2309 189.006C64.6379 189.299 61.122 189.458 57.7141 189.458ZM116.5 225.045C101.865 225.045 88.5698 213.378 78.7979 194.463C90.9241 192.684 103.675 189.465 116.496 184.988C129.317 189.465 142.076 192.684 154.206 194.463C144.434 213.378 131.139 225.045 116.5 225.045ZM220.815 171.708C213.602 183.159 197.439 189.461 175.302 189.461C171.886 189.461 168.366 189.303 164.777 189.01C168.945 179.099 172.268 167.837 174.53 155.565C189.357 145.357 202.074 134.029 211.842 122.262C211.912 122.359 211.993 122.459 212.07 122.555C225.551 141.806 228.657 159.262 220.815 171.708Z" fill="white"/>
</svg>
