<svg width="82" height="109" viewBox="0 0 82 109" fill="none" xmlns="http://www.w3.org/2000/svg">
<path d="M8.23438 96.0508H3.37109V94.8203H8.23438C9.25 94.8203 10.0742 94.6562 10.707 94.3281C11.3477 93.9922 11.8125 93.5391 12.1016 92.9688C12.3984 92.3984 12.5469 91.7578 12.5469 91.0469C12.5469 90.3516 12.3984 89.7109 12.1016 89.125C11.8125 88.5391 11.3477 88.0703 10.707 87.7188C10.0742 87.3594 9.25 87.1797 8.23438 87.1797H3.875V103H2.43359V85.9375H8.23438C9.48438 85.9375 10.5352 86.1523 11.3867 86.582C12.2461 87.0117 12.8945 87.6094 13.332 88.375C13.7695 89.1406 13.9883 90.0234 13.9883 91.0234C13.9883 92.0703 13.7695 92.9727 13.332 93.7305C12.8945 94.4805 12.25 95.0547 11.3984 95.4531C10.5469 95.8516 9.49219 96.0508 8.23438 96.0508ZM18.2891 85V103H16.8945V85H18.2891ZM17.9727 95.875L17.3516 95.5234C17.3984 94.7734 17.5508 94.0703 17.8086 93.4141C18.0664 92.7578 18.4141 92.1797 18.8516 91.6797C19.2969 91.1797 19.8164 90.7891 20.4102 90.5078C21.0117 90.2266 21.6758 90.0859 22.4023 90.0859C23.0352 90.0859 23.6016 90.1719 24.1016 90.3438C24.6016 90.5156 25.0273 90.7891 25.3789 91.1641C25.7305 91.5391 25.9961 92.0195 26.1758 92.6055C26.3633 93.1914 26.457 93.9062 26.457 94.75V103H25.0508V94.7383C25.0508 93.8633 24.9297 93.1797 24.6875 92.6875C24.4453 92.1875 24.1016 91.832 23.6562 91.6211C23.2109 91.4102 22.6836 91.3047 22.0742 91.3047C21.4023 91.3047 20.8125 91.4531 20.3047 91.75C19.8047 92.0391 19.3828 92.418 19.0391 92.8867C18.7031 93.3477 18.4453 93.8438 18.2656 94.375C18.0859 94.8984 17.9883 95.3984 17.9727 95.875ZM33.8281 101.734L37.7773 90.3203H39.2891L33.9219 105.039C33.8125 105.328 33.6719 105.648 33.5 106C33.3359 106.352 33.1172 106.688 32.8438 107.008C32.5781 107.336 32.2422 107.602 31.8359 107.805C31.4375 108.016 30.9492 108.121 30.3711 108.121C30.2227 108.121 30.0312 108.102 29.7969 108.062C29.5703 108.031 29.4062 108 29.3047 107.969L29.293 106.785C29.3789 106.809 29.5039 106.828 29.668 106.844C29.832 106.859 29.9453 106.867 30.0078 106.867C30.5156 106.867 30.9414 106.781 31.2852 106.609C31.6367 106.438 31.9297 106.18 32.1641 105.836C32.3984 105.5 32.6055 105.078 32.7852 104.57L33.8281 101.734ZM30.1367 90.3203L34.1797 101.207L34.5547 102.672L33.5352 103.246L28.6133 90.3203H30.1367ZM49.0742 99.7656C49.0742 99.4219 48.9883 99.082 48.8164 98.7461C48.6445 98.4102 48.3125 98.1016 47.8203 97.8203C47.3359 97.5391 46.6211 97.3008 45.6758 97.1055C44.9727 96.9492 44.3438 96.7734 43.7891 96.5781C43.2422 96.3828 42.7812 96.1484 42.4062 95.875C42.0312 95.6016 41.7461 95.2734 41.5508 94.8906C41.3555 94.5078 41.2578 94.0547 41.2578 93.5312C41.2578 93.0625 41.3594 92.6211 41.5625 92.207C41.7734 91.7852 42.0703 91.418 42.4531 91.1055C42.8438 90.7852 43.3125 90.5352 43.8594 90.3555C44.4141 90.1758 45.0352 90.0859 45.7227 90.0859C46.6992 90.0859 47.5352 90.2539 48.2305 90.5898C48.9336 90.918 49.4688 91.3672 49.8359 91.9375C50.2109 92.5078 50.3984 93.1523 50.3984 93.8711H49.0039C49.0039 93.4336 48.875 93.0195 48.6172 92.6289C48.3672 92.2383 47.9961 91.918 47.5039 91.668C47.0195 91.418 46.4258 91.293 45.7227 91.293C44.9961 91.293 44.4062 91.4023 43.9531 91.6211C43.5 91.8398 43.168 92.1172 42.957 92.4531C42.7539 92.7891 42.6523 93.1367 42.6523 93.4961C42.6523 93.7773 42.6953 94.0352 42.7812 94.2695C42.875 94.4961 43.0391 94.707 43.2734 94.9023C43.5156 95.0977 43.8594 95.2812 44.3047 95.4531C44.75 95.625 45.3281 95.793 46.0391 95.957C47.0625 96.1836 47.8984 96.4609 48.5469 96.7891C49.2031 97.1094 49.6875 97.5078 50 97.9844C50.3125 98.4531 50.4688 99.0234 50.4688 99.6953C50.4688 100.219 50.3594 100.699 50.1406 101.137C49.9219 101.566 49.6055 101.938 49.1914 102.25C48.7852 102.562 48.293 102.805 47.7148 102.977C47.1445 103.148 46.5039 103.234 45.793 103.234C44.7227 103.234 43.8164 103.059 43.0742 102.707C42.3398 102.348 41.7812 101.879 41.3984 101.301C41.0234 100.715 40.8359 100.094 40.8359 99.4375H42.2305C42.2773 100.094 42.4844 100.613 42.8516 100.996C43.2188 101.371 43.668 101.637 44.1992 101.793C44.7383 101.949 45.2695 102.027 45.793 102.027C46.5117 102.027 47.1133 101.922 47.5977 101.711C48.082 101.5 48.4492 101.223 48.6992 100.879C48.9492 100.535 49.0742 100.164 49.0742 99.7656ZM55.2031 90.3203V103H53.8086V90.3203H55.2031ZM53.5625 86.6523C53.5625 86.3867 53.6445 86.1641 53.8086 85.9844C53.9805 85.7969 54.2148 85.7031 54.5117 85.7031C54.8086 85.7031 55.043 85.7969 55.2148 85.9844C55.3945 86.1641 55.4844 86.3867 55.4844 86.6523C55.4844 86.9102 55.3945 87.1328 55.2148 87.3203C55.043 87.5 54.8086 87.5898 54.5117 87.5898C54.2148 87.5898 53.9805 87.5 53.8086 87.3203C53.6445 87.1328 53.5625 86.9102 53.5625 86.6523ZM63.7109 102.027C64.3047 102.027 64.8594 101.918 65.375 101.699C65.8984 101.473 66.3281 101.141 66.6641 100.703C67.0078 100.258 67.2031 99.7148 67.25 99.0742H68.5859C68.5469 99.8789 68.3008 100.598 67.8477 101.23C67.4023 101.855 66.8164 102.348 66.0898 102.707C65.3711 103.059 64.5781 103.234 63.7109 103.234C62.8281 103.234 62.0469 103.074 61.3672 102.754C60.6953 102.434 60.1328 101.988 59.6797 101.418C59.2266 100.84 58.8828 100.168 58.6484 99.4023C58.4219 98.6289 58.3086 97.7969 58.3086 96.9062V96.4141C58.3086 95.5234 58.4219 94.6953 58.6484 93.9297C58.8828 93.1562 59.2266 92.4844 59.6797 91.9141C60.1328 91.3359 60.6953 90.8867 61.3672 90.5664C62.0391 90.2461 62.8164 90.0859 63.6992 90.0859C64.6055 90.0859 65.418 90.2695 66.1367 90.6367C66.8633 91.0039 67.4414 91.5234 67.8711 92.1953C68.3086 92.8672 68.5469 93.6641 68.5859 94.5859H67.25C67.2109 93.9062 67.0312 93.3203 66.7109 92.8281C66.3906 92.3359 65.9688 91.957 65.4453 91.6914C64.9219 91.4258 64.3398 91.293 63.6992 91.293C62.9805 91.293 62.3672 91.4336 61.8594 91.7148C61.3516 91.9883 60.9375 92.3672 60.6172 92.8516C60.3047 93.3281 60.0742 93.875 59.9258 94.4922C59.7773 95.1016 59.7031 95.7422 59.7031 96.4141V96.9062C59.7031 97.5859 59.7734 98.2344 59.9141 98.8516C60.0625 99.4609 60.293 100.004 60.6055 100.48C60.9258 100.957 61.3398 101.336 61.8477 101.617C62.3633 101.891 62.9844 102.027 63.7109 102.027ZM79.0039 99.7656C79.0039 99.4219 78.918 99.082 78.7461 98.7461C78.5742 98.4102 78.2422 98.1016 77.75 97.8203C77.2656 97.5391 76.5508 97.3008 75.6055 97.1055C74.9023 96.9492 74.2734 96.7734 73.7188 96.5781C73.1719 96.3828 72.7109 96.1484 72.3359 95.875C71.9609 95.6016 71.6758 95.2734 71.4805 94.8906C71.2852 94.5078 71.1875 94.0547 71.1875 93.5312C71.1875 93.0625 71.2891 92.6211 71.4922 92.207C71.7031 91.7852 72 91.418 72.3828 91.1055C72.7734 90.7852 73.2422 90.5352 73.7891 90.3555C74.3438 90.1758 74.9648 90.0859 75.6523 90.0859C76.6289 90.0859 77.4648 90.2539 78.1602 90.5898C78.8633 90.918 79.3984 91.3672 79.7656 91.9375C80.1406 92.5078 80.3281 93.1523 80.3281 93.8711H78.9336C78.9336 93.4336 78.8047 93.0195 78.5469 92.6289C78.2969 92.2383 77.9258 91.918 77.4336 91.668C76.9492 91.418 76.3555 91.293 75.6523 91.293C74.9258 91.293 74.3359 91.4023 73.8828 91.6211C73.4297 91.8398 73.0977 92.1172 72.8867 92.4531C72.6836 92.7891 72.582 93.1367 72.582 93.4961C72.582 93.7773 72.625 94.0352 72.7109 94.2695C72.8047 94.4961 72.9688 94.707 73.2031 94.9023C73.4453 95.0977 73.7891 95.2812 74.2344 95.4531C74.6797 95.625 75.2578 95.793 75.9688 95.957C76.9922 96.1836 77.8281 96.4609 78.4766 96.7891C79.1328 97.1094 79.6172 97.5078 79.9297 97.9844C80.2422 98.4531 80.3984 99.0234 80.3984 99.6953C80.3984 100.219 80.2891 100.699 80.0703 101.137C79.8516 101.566 79.5352 101.938 79.1211 102.25C78.7148 102.562 78.2227 102.805 77.6445 102.977C77.0742 103.148 76.4336 103.234 75.7227 103.234C74.6523 103.234 73.7461 103.059 73.0039 102.707C72.2695 102.348 71.7109 101.879 71.3281 101.301C70.9531 100.715 70.7656 100.094 70.7656 99.4375H72.1602C72.207 100.094 72.4141 100.613 72.7812 100.996C73.1484 101.371 73.5977 101.637 74.1289 101.793C74.668 101.949 75.1992 102.027 75.7227 102.027C76.4414 102.027 77.043 101.922 77.5273 101.711C78.0117 101.5 78.3789 101.223 78.6289 100.879C78.8789 100.535 79.0039 100.164 79.0039 99.7656Z" fill="white" fill-opacity="0.9"/>
<path d="M66.873 31.999C67.029 31.786 67.189 31.573 67.34 31.36C71.231 25.804 72.051 20.646 69.653 16.835C67.436 13.314 62.673 11.375 56.237 11.375C55.114 11.375 53.95 11.441 52.76 11.558C49.867 5.651 45.703 2 41 2C36.299 2 32.135 5.651 29.242 11.558C28.087 11.4404 26.927 11.3794 25.766 11.375C19.332 11.375 14.567 13.314 12.35 16.835C9.95004 20.646 10.771 25.804 14.661 31.36C14.811 31.573 14.971 31.786 15.128 31.999C14.97 32.212 14.81 32.424 14.66 32.639C10.77 38.193 9.94904 43.353 12.349 47.164C14.566 50.684 19.331 52.625 25.765 52.625H25.767C26.9274 52.6208 28.0868 52.5594 29.241 52.441C32.134 58.35 36.298 62 41 62C45.704 62 49.868 58.35 52.76 52.441C53.949 52.558 55.114 52.625 56.237 52.625C62.673 52.625 67.436 50.686 69.653 47.164C72.051 43.353 71.231 38.193 67.34 32.639C67.189 32.424 67.029 32.212 66.873 31.999V31.999ZM56.236 13.095C61.972 13.095 66.16 14.728 68.027 17.695C70.058 20.921 69.256 25.444 65.761 30.431L65.704 30.506C63.173 27.458 59.878 24.524 56.036 21.88C55.45 18.699 54.589 15.781 53.509 13.214C54.439 13.137 55.352 13.095 56.236 13.095V13.095ZM48.826 44.43C46.3004 45.7617 43.6859 46.9175 41.001 47.889C38.3156 46.9173 35.7004 45.7615 33.174 44.43C31.2973 43.4356 29.4729 42.3455 27.708 41.164C27.1907 38.1368 26.9327 35.071 26.937 32C26.937 28.791 27.211 25.709 27.708 22.834C29.4729 21.653 31.2973 20.5636 33.174 19.57C35.6999 18.2376 38.3152 17.0821 41.001 16.112C43.6857 17.0836 46.3002 18.239 48.826 19.57C50.7024 20.5634 52.5264 21.6525 54.291 22.833C54.809 25.8611 55.0669 28.9279 55.062 32C55.062 35.208 54.789 38.291 54.291 41.166C52.5262 42.3465 50.7022 43.4359 48.826 44.43V44.43ZM53.809 43.588C53.231 46.137 52.467 48.483 51.555 50.559C49.002 50.217 46.332 49.61 43.617 48.768C47.1605 47.3453 50.5711 45.6119 53.809 43.588V43.588ZM38.383 48.768C35.669 49.61 32.999 50.217 30.447 50.559C29.533 48.483 28.771 46.137 28.192 43.588C29.5116 44.4135 30.8609 45.1907 32.237 45.918C34.2341 46.9756 36.2856 47.9269 38.383 48.768V48.768ZM25.569 39.67C22.33 37.277 19.576 34.678 17.433 32C19.576 29.323 22.329 26.721 25.569 24.33C25.229 26.8728 25.0599 29.4356 25.063 32.001C25.063 34.66 25.239 37.229 25.569 39.67V39.67ZM28.191 20.413C28.77 17.865 29.532 15.518 30.446 13.442C32.998 13.783 35.668 14.39 38.383 15.232C36.2858 16.0738 34.2343 17.0255 32.237 18.083C30.8606 18.8105 29.5111 19.5877 28.191 20.413V20.413ZM43.619 15.231C46.332 14.39 49.002 13.783 51.555 13.441C52.467 15.517 53.231 17.863 53.809 20.412C50.5718 18.3879 47.1618 16.6542 43.619 15.231V15.231ZM56.432 24.329C59.67 26.721 62.426 29.322 64.569 32C62.426 34.678 59.673 37.28 56.432 39.67C56.762 37.229 56.938 34.66 56.938 32.001C56.938 29.339 56.762 26.77 56.432 24.329V24.329ZM41 3.875C44.793 3.875 48.239 6.899 50.77 11.798C47.627 12.259 44.323 13.092 41.001 14.254C37.679 13.092 34.374 12.259 31.231 11.798C33.763 6.899 37.207 3.875 41 3.875ZM16.238 30.431C12.746 25.444 11.941 20.92 13.972 17.695C15.84 14.728 20.029 13.095 25.765 13.095C26.649 13.095 27.561 13.137 28.491 13.214C27.409 15.781 26.549 18.699 25.962 21.88C22.121 24.524 18.826 27.459 16.295 30.506C16.278 30.481 16.256 30.456 16.238 30.431V30.431ZM25.768 50.904H25.766C20.03 50.904 15.842 49.271 13.973 46.304C11.942 43.079 12.746 38.556 16.239 33.568C16.257 33.543 16.279 33.519 16.297 33.494C18.828 36.541 22.123 39.476 25.964 42.121C26.551 45.301 27.411 48.221 28.493 50.787C27.562 50.863 26.651 50.904 25.768 50.904V50.904ZM41 60.125C37.208 60.125 33.763 57.102 31.231 52.201C34.373 51.74 37.677 50.906 40.999 49.746C44.321 50.906 47.627 51.74 50.77 52.201C48.238 57.102 44.793 60.125 41 60.125ZM68.029 46.305C66.16 49.272 61.972 50.905 56.236 50.905C55.351 50.905 54.439 50.864 53.509 50.788C54.589 48.22 55.45 45.302 56.036 42.122C59.878 39.477 63.173 36.542 65.704 33.493C65.722 33.518 65.743 33.544 65.763 33.569C69.256 38.557 70.061 43.08 68.029 46.305" fill="white" fill-opacity="0.9"/>
<path d="M40.625 37.25C43.7316 37.25 46.25 34.7316 46.25 31.625C46.25 28.5184 43.7316 26 40.625 26C37.5184 26 35 28.5184 35 31.625C35 34.7316 37.5184 37.25 40.625 37.25Z" fill="white" fill-opacity="0.9"/>
</svg>
