<svg width="34" height="34" viewBox="0 0 34 34" fill="none" xmlns="http://www.w3.org/2000/svg">
<path d="M30.6392 6.26059C29.4347 7.0701 28.1012 7.68925 26.6898 8.09419C25.9323 7.26429 24.9256 6.67607 23.8058 6.4091C22.686 6.14213 21.5072 6.20929 20.4287 6.60148C19.3503 6.99368 18.4243 7.69199 17.776 8.60198C17.1276 9.51197 16.7883 10.5897 16.8037 11.6895V12.8879C14.5934 12.9425 12.4031 12.4754 10.4281 11.5282C8.45307 10.581 6.75455 9.18312 5.4838 7.45902C5.4838 7.45902 0.452722 18.2449 11.7727 23.0386C9.18231 24.714 6.09653 25.554 2.96826 25.4355C14.2882 31.4276 28.1237 25.4355 28.1237 11.6535C28.1225 11.3197 28.0888 10.9867 28.023 10.6588C29.3067 9.4526 30.2126 7.92966 30.6392 6.26059Z" fill="#F0F0F0"/>
</svg>
